<svg width="22" height="22" viewBox="0 0 22 22" fill="none" xmlns="http://www.w3.org/2000/svg">
<path d="M2.75 2.75L19.25 19.25" stroke="#6D6D6D" stroke-width="1.4" stroke-linecap="round" stroke-linejoin="round"/>
<path d="M9.70197 9.70483C9.35796 10.0486 9.1646 10.5149 9.16443 11.0013C9.16426 11.4876 9.35729 11.9541 9.70105 12.2981C10.0448 12.6421 10.5112 12.8355 10.9975 12.8356C11.4838 12.8358 11.9503 12.6428 12.2943 12.299" stroke="#6D6D6D" stroke-width="1.4" stroke-linecap="round" stroke-linejoin="round"/>
<path d="M15.9106 15.9032C14.4155 16.9116 12.7802 17.4166 11 17.4166C7.33334 17.4166 4.27809 15.2781 1.83334 11C3.08826 8.80456 4.50359 7.17289 6.07934 6.10406M8.58276 4.91789C9.36873 4.69305 10.1825 4.58041 11 4.58331C14.6667 4.58331 17.7219 6.72189 20.1667 11C19.4535 12.2476 18.689 13.3136 17.8723 14.1973L8.58276 4.91789Z" stroke="#6D6D6D" stroke-width="1.4" stroke-linecap="round" stroke-linejoin="round"/>
</svg>
